<svg width="34" height="22" viewBox="0 0 34 22" fill="none" xmlns="http://www.w3.org/2000/svg">
<g clip-path="url(#clip0_787_8144)">
<path d="M0.228027 2.74463C0.228027 1.22881 1.47096 0 3.0042 0H30.7659C32.2992 0 33.5421 1.22881 33.5421 2.74463V19.2124C33.5421 20.7282 32.2992 21.957 30.7659 21.957H3.0042C1.47096 21.957 0.228027 20.7282 0.228027 19.2124V2.74463Z" fill="#D4DEF7"/>
<path d="M24.813 6.77289L24.1684 8.17772H25.4611L24.813 6.77289ZM17.3748 7.64344C17.4963 7.58643 17.5678 7.46242 17.5678 7.30842C17.5678 7.15751 17.4927 7.04821 17.3712 6.99685C17.2605 6.93992 17.0903 6.93334 16.927 6.93334H15.7738V7.71609H16.9116C17.0938 7.71613 17.246 7.71372 17.3748 7.64344ZM2.59795 6.77289L1.96065 8.17772H3.23909L2.59795 6.77289ZM32.2695 15.7727H30.4609V15.0168H32.2622C32.4408 15.0168 32.5658 14.9958 32.6411 14.9295C32.7123 14.8704 32.7526 14.787 32.7518 14.6997C32.7518 14.597 32.7065 14.5154 32.6374 14.4666C32.5695 14.4128 32.4705 14.3883 32.3074 14.3883C31.428 14.3615 30.331 14.4127 30.331 13.2973C30.331 12.7861 30.6919 12.248 31.6747 12.248H33.5402V11.5467H31.807C31.284 11.5467 30.9039 11.6594 30.6349 11.8346V11.5467H28.0713C27.6614 11.5467 27.1802 11.6381 26.9526 11.8346V11.5467H22.3744V11.8346C22.0101 11.5982 21.3952 11.5467 21.1116 11.5467H18.0919V11.8346C17.8037 11.5835 17.1625 11.5467 16.772 11.5467H13.3924L12.6191 12.2995L11.8948 11.5467H6.84631V16.4654H11.7995L12.5963 15.7005L13.347 16.4654L16.4002 16.4678V15.3107H16.7004C17.1055 15.3166 17.5833 15.3018 18.0049 15.1379V16.4652H20.5232V15.1832H20.6447C20.7997 15.1832 20.815 15.189 20.815 15.3284V16.4649H28.4655C28.9512 16.4649 29.459 16.3532 29.74 16.1501V16.4649H32.1668C32.6717 16.4649 33.1649 16.4013 33.5401 16.2383V15.322C33.3127 15.6212 32.8692 15.7729 32.2694 15.7729L32.2695 15.7727ZM16.7405 14.6113H15.5719V15.7936H13.7517L12.5985 14.6268L11.4001 15.7936H7.69042V12.2688H11.4571L12.6093 13.4242L13.8005 12.2688H16.7931C17.5363 12.2688 18.3713 12.4539 18.3713 13.43C18.3713 14.4092 17.5591 14.6113 16.7405 14.6113ZM22.3596 14.4515C22.4919 14.6235 22.511 14.7841 22.5148 15.0948V15.7936H21.5745V15.3526C21.5745 15.1406 21.5973 14.8266 21.4231 14.6627C21.2865 14.5365 21.0778 14.5063 20.736 14.5063H19.7352V15.7936H18.7942V12.2688H20.9562C21.4306 12.2688 21.7758 12.2878 22.0831 12.4351C22.3787 12.5957 22.5647 12.8158 22.5647 13.2179C22.5646 13.7804 22.1475 14.0674 21.9009 14.1556C22.1093 14.2248 22.2796 14.3488 22.3596 14.4515ZM26.2282 12.9978H24.0351V13.6385H26.1746V14.3577H24.0351V15.059L26.2282 15.0622V15.7936H23.1025V12.2688H26.2282V12.9978ZM28.6347 15.7935H26.8107V15.0377H28.6275C28.8051 15.0377 28.9311 15.0165 29.01 14.9503C29.0744 14.8959 29.1207 14.8166 29.1207 14.7206C29.1207 14.6178 29.0705 14.5363 29.0064 14.4874C28.9347 14.4336 28.8358 14.4093 28.6729 14.4093C27.797 14.3823 26.7002 14.4335 26.7002 13.3182C26.7002 12.807 27.0574 12.2688 28.0392 12.2688H29.9168V13.0189H28.1987C28.0284 13.0189 27.9177 13.0248 27.8236 13.0828C27.7209 13.1399 27.6829 13.2245 27.6829 13.3362C27.6829 13.4692 27.77 13.5597 27.8877 13.5988C27.9866 13.6297 28.0926 13.6387 28.2522 13.6387L28.7564 13.6511C29.2646 13.6621 29.6137 13.7413 29.8259 13.9345C30.0081 14.1042 30.106 14.3185 30.106 14.6812C30.1059 15.4395 29.5792 15.7935 28.6347 15.7935ZM21.3712 13.0546C21.2581 12.9941 21.0911 12.9909 20.9244 12.9909H19.7712V13.7825H20.909C21.0912 13.7825 21.2461 13.7767 21.3712 13.7099C21.4926 13.6439 21.5653 13.5223 21.5653 13.3716C21.5653 13.2208 21.4926 13.1117 21.3712 13.0546ZM31.8351 12.9909C31.6647 12.9909 31.5514 12.9967 31.4561 13.0545C31.3573 13.1117 31.3193 13.1963 31.3193 13.3082C31.3193 13.441 31.4028 13.5316 31.5241 13.5707C31.623 13.6016 31.7289 13.6107 31.8849 13.6107L32.3926 13.6228C32.9047 13.6342 33.2468 13.7135 33.4552 13.9067C33.4932 13.9335 33.516 13.9636 33.5421 13.9938V12.9909H31.8352L31.8351 12.9909ZM16.7729 12.9909H15.5518V13.8886H16.7621C17.1219 13.8886 17.3456 13.728 17.3458 13.4231C17.3456 13.1148 17.111 12.9909 16.7729 12.9909ZM8.62319 12.9909V13.6317H10.6791V14.3509H8.62319V15.0521H10.9257L11.9955 14.0181L10.9712 12.9909H8.62319ZM14.6357 15.4558V12.6299L13.1978 14.0201L14.6357 15.4558ZM8.70178 9.79658V10.4039H16.5261L16.5224 9.11908H16.6738C16.7799 9.12241 16.8107 9.13119 16.8107 9.28863V10.404H20.8575V10.1048C21.1839 10.2621 21.6916 10.404 22.3596 10.404H24.0621L24.4265 9.62125H25.2343L25.5906 10.404H28.8713V9.66046L29.3679 10.4039H31.997V5.48926H29.3953V6.06969L29.031 5.48926H26.3612V6.06969L26.0266 5.48926H22.4203C21.8166 5.48926 21.2862 5.56503 20.8575 5.77625V5.48926H18.3688V5.77625C18.096 5.55854 17.7243 5.48926 17.3112 5.48926H8.21923L7.60922 6.7587L6.98273 5.48926H4.11907V6.06969L3.80442 5.48926H1.36218L0.22807 7.82606V9.69526L1.90509 6.17129H3.29658L4.88928 9.50774V6.17129H6.41788L7.64348 8.56186L8.76943 6.17129H10.3287V9.69526H9.36876L9.36526 6.93535L8.00721 9.69526H7.18493L5.82342 6.9329V9.69526H3.9185L3.55865 8.90923H1.60871L1.24515 9.69526H0.228027V10.4042H1.82825L2.18903 9.62145H2.99687L3.35672 10.4042H6.50509V9.80572L6.78609 10.4067H8.42048L8.70152 9.7967L8.70178 9.79658ZM21.0313 6.58204C21.3339 6.30079 21.8081 6.17109 22.4535 6.17109H23.3601V6.92617H22.4725C22.1309 6.92617 21.9377 6.97187 21.7519 7.13497C21.5921 7.28332 21.4826 7.56381 21.4826 7.93315C21.4826 8.31071 21.5661 8.58291 21.7401 8.76072C21.8843 8.90017 22.1464 8.94247 22.3928 8.94247H22.8136L24.1335 6.17121H25.5367L27.1223 9.50434V6.17125H28.5482L30.1944 8.62549V6.17125H31.1537V9.6951H29.8266L28.0515 7.05022V9.6951H26.1441L25.7797 8.90907H23.8342L23.4807 9.6951H22.3847C21.9295 9.6951 21.3532 9.60457 21.0268 9.30531C20.6976 9.00613 20.5265 8.60083 20.5265 7.96006C20.5263 7.43736 20.6285 6.9596 21.0313 6.58204ZM19.1049 6.17113H20.0605V9.6951H19.1049V6.17113ZM14.7966 6.17113H16.9507C17.4292 6.17113 17.782 6.18255 18.0848 6.33992C18.381 6.49733 18.5587 6.72714 18.5587 7.12014C18.5587 7.68205 18.1417 7.97229 17.8988 8.05949C18.1037 8.12965 18.2788 8.25358 18.3622 8.35622C18.4945 8.53151 18.5172 8.68807 18.5172 9.00277V9.69506H17.5727L17.5691 9.25066C17.5691 9.03857 17.5917 8.73362 17.4213 8.56418C17.2845 8.4403 17.0758 8.41331 16.7386 8.41331H15.7333V9.6951H14.7968L14.7966 6.17113ZM11.0213 6.17113H14.1498V6.90496H11.9579V7.54016H14.0972V8.26252H11.9579V8.96628H14.1498V9.69506H11.0213V6.17113Z" fill="#2557D6"/>
</g>
<defs>
<clipPath id="clip0_787_8144">
<rect width="33.3141" height="21.957" fill="white" transform="translate(0.228027)"/>
</clipPath>
</defs>
</svg>
