<svg width="35" height="22" viewBox="0 0 35 22" fill="none" xmlns="http://www.w3.org/2000/svg">
<g clip-path="url(#clip0_787_8132)">
<path d="M0.156738 2.74463C0.156738 1.22881 1.42792 0 2.99601 0H31.3887C32.9568 0 34.228 1.22881 34.228 2.74463V19.2124C34.228 20.7282 32.9568 21.957 31.3887 21.957H2.99601C1.42792 21.957 0.156738 20.7282 0.156738 19.2124V2.74463Z" fill="#FCE0CF"/>
<path d="M20.4435 10.964C20.446 10.3741 20.2172 9.78335 19.7568 9.33817C19.2953 8.89207 18.6826 8.67107 18.0711 8.67462C18.0682 8.67462 18.0654 8.67444 18.0623 8.67444C16.7344 8.67444 15.6812 9.69238 15.6812 10.9764C15.6812 12.2477 16.7474 13.2781 18.0623 13.2781C19.3906 13.2781 20.4438 12.26 20.4438 10.9764C20.4438 10.9721 20.4435 10.9682 20.4435 10.964Z" fill="#F26E21"/>
<path d="M15.2386 11.9507C14.8827 12.2951 14.5542 12.4297 14.2004 12.437C13.3384 12.4295 12.7046 11.8124 12.7046 10.9327C12.7046 10.4898 12.8781 10.1269 13.1529 9.81678C13.4106 9.5803 13.7426 9.42749 14.1243 9.42749C14.5364 9.42749 14.8571 9.56028 15.2232 9.91443V8.8963C14.8571 8.71932 14.5363 8.63074 14.1243 8.63074C13.5422 8.67096 12.9933 8.89832 12.5723 9.25535C12.451 9.36089 12.3347 9.47739 12.2361 9.61072C11.9285 9.99603 11.7427 10.4678 11.7427 10.9771C11.7427 12.2607 12.7963 13.2345 14.1242 13.2345C14.1307 13.2345 14.1371 13.234 14.1434 13.2339C14.1523 13.2341 14.1611 13.2345 14.17 13.2345C14.5363 13.2345 14.8571 13.1462 15.2692 12.9691L15.2386 11.9507C15.2231 11.9657 15.2539 11.9796 15.2386 11.9937V11.9507Z" fill="#2B2B2B"/>
<path d="M23.4496 9.26516L22.4125 11.7299L21.2218 8.80804H20.2603L22.1377 13.2791H22.6414L24.6106 8.80804H23.6491L23.4496 9.26516Z" fill="#2B2B2B"/>
<path d="M24.978 10.7559V13.1465H27.451H27.4966V12.438H26.7182H25.8939V11.6414V11.2431H27.451V10.4903H25.8939V9.56072H27.4966V8.80804H24.978V10.7559Z" fill="#2B2B2B"/>
<path d="M4.27858 8.80893H2.99609V13.1474H4.27851C4.96532 13.1474 5.46898 12.9702 5.88113 12.6603C6.38478 12.2619 6.70548 11.6423 6.70548 10.9784C6.70555 9.69427 5.7437 8.80893 4.27858 8.80893ZM5.33174 12.085C5.05696 12.3062 4.6906 12.4389 4.14103 12.4389H3.86624V9.56155H4.09517C4.64475 9.56155 5.01111 9.65007 5.28596 9.91557C5.60647 10.181 5.78974 10.5797 5.78974 10.9782C5.83553 11.3766 5.65238 11.8191 5.33174 12.085Z" fill="#2B2B2B"/>
<path d="M7.98776 8.80783H7.11768V13.1462H7.98776V8.80783Z" fill="#2B2B2B"/>
<path d="M10.1859 10.4908C9.63649 10.3137 9.49894 10.1808 9.49894 9.95957C9.49894 9.69394 9.77372 9.47264 10.1401 9.47264C10.4149 9.47264 10.6438 9.56122 10.8728 9.82685L11.3309 9.2514C10.9644 8.94139 10.5066 8.76453 10.0028 8.76453C9.22415 8.76453 8.583 9.29578 8.583 10.0038C8.583 10.6237 8.85804 10.8893 9.68221 11.1992C10.0486 11.3318 10.186 11.3762 10.2778 11.4647C10.4606 11.5531 10.5524 11.7304 10.5524 11.9072C10.5524 12.2614 10.2778 12.5271 9.86536 12.5271C9.45283 12.5271 9.08679 12.3058 8.90358 11.9516L8.354 12.4829C8.76634 13.0583 9.27006 13.3239 9.91121 13.3239C10.827 13.3239 11.4678 12.7484 11.4678 11.9072C11.468 11.1549 11.1934 10.845 10.1859 10.4908Z" fill="#2B2B2B"/>
<path d="M29.97 11.3313C30.6567 11.1987 31.0232 10.7558 31.0232 10.092C31.0232 9.29528 30.4277 8.80804 29.4204 8.80804H28.0923V13.1465H28.9624V11.4199H29.0999L30.336 13.1465H31.3895L29.97 11.3313ZM29.237 10.8H28.9624V9.47214H29.237C29.7866 9.47214 30.1073 9.69339 30.1073 10.1364C30.1073 10.5788 29.7867 10.8 29.237 10.8Z" fill="#2B2B2B"/>
</g>
<defs>
<clipPath id="clip0_787_8132">
<rect width="34.0712" height="21.957" fill="white" transform="translate(0.156738)"/>
</clipPath>
</defs>
</svg>
