<svg width="22" height="22" viewBox="0 0 22 22" fill="none" xmlns="http://www.w3.org/2000/svg">
<g opacity="0.5">
<path d="M18.816 2.5043H3.18404C2.80811 2.5043 2.50439 2.80802 2.50439 3.18395V18.8159C2.50439 19.1918 2.80811 19.4955 3.18404 19.4955H18.816C19.1919 19.4955 19.4956 19.1918 19.4956 18.8159V3.18395C19.4956 2.80802 19.1919 2.5043 18.816 2.5043ZM16.8535 7.46362H15.4963C14.4322 7.46362 14.2262 7.96911 14.2262 8.71248V10.35H16.7664L16.4351 12.9136H14.2262V19.4955H11.5777V12.9157H9.36248V10.35H11.5777V8.45973C11.5777 6.26574 12.9179 5.06998 14.8761 5.06998C15.8149 5.06998 16.6199 5.14007 16.8556 5.17193V7.46362H16.8535Z" fill="white"/>
</g>
</svg>
