<svg width="35" height="22" viewBox="0 0 35 22" fill="none" xmlns="http://www.w3.org/2000/svg">
<g clip-path="url(#clip0_787_8117)">
<path d="M0.45752 2.74463C0.45752 1.22881 1.7287 0 3.29679 0H31.6895C33.2576 0 34.5288 1.22881 34.5288 2.74463V19.2124C34.5288 20.7282 33.2576 21.957 31.6895 21.957H3.29679C1.7287 21.957 0.45752 20.7282 0.45752 19.2124V2.74463Z" fill="#CCDEFF"/>
<path d="M8.10292 7.90276C7.74704 7.66626 7.28265 7.54773 6.70975 7.54773H4.49178C4.31615 7.54773 4.21912 7.63264 4.20069 7.80229L3.2997 13.2695C3.29034 13.3232 3.30424 13.3723 3.34127 13.4169C3.37809 13.4617 3.4244 13.4839 3.47987 13.4839H4.53339C4.71817 13.4839 4.81973 13.3992 4.83838 13.2293L5.08786 11.7554C5.09697 11.684 5.12947 11.6259 5.18493 11.5812C5.24035 11.5365 5.30967 11.5073 5.39285 11.494C5.47602 11.4807 5.55445 11.474 5.62852 11.474C5.70237 11.474 5.79012 11.4785 5.89194 11.4874C5.99351 11.4963 6.05825 11.5007 6.086 11.5007C6.88072 11.5007 7.50451 11.2842 7.95742 10.8508C8.41011 10.4176 8.63672 9.81689 8.63672 9.04842C8.63672 8.52136 8.45863 8.1395 8.10292 7.90264V7.90276ZM6.95936 9.54439C6.91301 9.85711 6.79301 10.0625 6.59895 10.1608C6.40485 10.2592 6.12761 10.3082 5.76724 10.3082L5.30976 10.3215L5.54547 8.8877C5.56386 8.78952 5.6239 8.74037 5.72563 8.74037H5.9891C6.35858 8.74037 6.62675 8.79186 6.7931 8.89442C6.95936 8.99722 7.01483 9.21394 6.95936 9.54439Z" fill="#003087"/>
<path d="M31.5091 7.54773H30.4834C30.3815 7.54773 30.3215 7.59688 30.3031 7.69522L29.4021 13.2697L29.3882 13.2965C29.3882 13.3414 29.4067 13.3836 29.4437 13.4239C29.4805 13.464 29.5269 13.4841 29.5823 13.4841H30.4973C30.6726 13.4841 30.7697 13.3994 30.7885 13.2295L31.6895 7.74884V7.73553C31.6894 7.6104 31.6292 7.54789 31.5091 7.54789V7.54773Z" fill="#009CDE"/>
<path d="M19.1159 9.70654C19.1159 9.66198 19.0973 9.61946 19.0606 9.57937C19.0235 9.53919 18.9819 9.51895 18.9358 9.51895H17.8684C17.7666 9.51895 17.6834 9.56384 17.6188 9.65293L16.1495 11.7434L15.5395 9.73341C15.4931 9.59059 15.3916 9.51895 15.2346 9.51895H14.1947C14.1484 9.51895 14.1068 9.5391 14.0701 9.57937C14.033 9.61946 14.0146 9.66206 14.0146 9.70654C14.0146 9.72452 14.1048 9.98797 14.2849 10.4972C14.4651 11.0065 14.6592 11.556 14.8671 12.1456C15.0751 12.7351 15.1836 13.048 15.1929 13.0834C14.435 14.0841 14.0563 14.6201 14.0563 14.6914C14.0563 14.8077 14.1162 14.8657 14.2365 14.8657H15.3038C15.4055 14.8657 15.4886 14.8211 15.5534 14.7317L19.0884 9.8003C19.1067 9.7826 19.1159 9.75147 19.1159 9.7065V9.70654Z" fill="#003087"/>
<path d="M29.0565 9.51689H28.0029C27.8734 9.51689 27.7951 9.66434 27.7674 9.95921C27.5268 9.60196 27.0881 9.4231 26.4503 9.4231C25.785 9.4231 25.2188 9.66434 24.7523 10.1468C24.2855 10.6292 24.0522 11.1966 24.0522 11.8487C24.0522 12.3759 24.2116 12.7957 24.5304 13.1083C24.8492 13.4212 25.2766 13.5773 25.8128 13.5773C26.0808 13.5773 26.3534 13.5236 26.6306 13.4165C26.9078 13.3093 27.1248 13.1664 27.2822 12.9877C27.2822 12.9967 27.2728 13.0367 27.2545 13.1081C27.2358 13.1797 27.2267 13.2335 27.2267 13.2689C27.2267 13.4121 27.2866 13.4833 27.407 13.4833H28.3635C28.5389 13.4833 28.6407 13.3986 28.6683 13.2288L29.2367 9.73127C29.2459 9.67762 29.232 9.62859 29.1951 9.58386C29.158 9.5393 29.1119 9.51689 29.0565 9.51689ZM27.2475 12.1569C27.0118 12.3802 26.7276 12.4918 26.3949 12.4918C26.1268 12.4918 25.9098 12.4205 25.7434 12.2775C25.577 12.1348 25.4938 11.9383 25.4938 11.6878C25.4938 11.3576 25.6093 11.0781 25.8405 10.8504C26.0712 10.6225 26.3579 10.5087 26.6999 10.5087C26.9584 10.5087 27.1733 10.5824 27.3445 10.7297C27.5153 10.8771 27.601 11.0804 27.601 11.3395C27.6009 11.6611 27.4831 11.9336 27.2475 12.1569Z" fill="#009CDE"/>
<path d="M13.3086 9.51689H12.255C12.1254 9.51689 12.047 9.66434 12.0193 9.95921C11.7698 9.60196 11.3308 9.4231 10.7024 9.4231C10.037 9.4231 9.47084 9.66434 9.00421 10.1468C8.53745 10.6292 8.3042 11.1966 8.3042 11.8487C8.3042 12.3759 8.46364 12.7957 8.78248 13.1083C9.10133 13.4212 9.52864 13.5773 10.0647 13.5773C10.3234 13.5773 10.5915 13.5236 10.8687 13.4165C11.1459 13.3093 11.3678 13.1664 11.5341 12.9877C11.497 13.0948 11.4786 13.1886 11.4786 13.2689C11.4786 13.4121 11.5387 13.4833 11.6588 13.4833H12.6153C12.7908 13.4833 12.8926 13.3986 12.9203 13.2288L13.4886 9.73127C13.4978 9.67762 13.4839 9.62859 13.4471 9.58386C13.4101 9.5393 13.3639 9.51689 13.3086 9.51689ZM11.4995 12.1635C11.2638 12.3826 10.9749 12.4918 10.6332 12.4918C10.365 12.4918 10.1501 12.4205 9.98853 12.2775C9.82672 12.1348 9.74592 11.9383 9.74592 11.6878C9.74592 11.3576 9.86138 11.0781 10.0925 10.8504C10.3234 10.6225 10.6099 10.5086 10.952 10.5086C11.2106 10.5086 11.4255 10.5824 11.5966 10.7297C11.7674 10.8771 11.853 11.0804 11.853 11.3395C11.853 11.6701 11.7352 11.9449 11.4995 12.1635Z" fill="#003087"/>
<path d="M23.8506 7.90276C23.4947 7.66626 23.0305 7.54773 22.4574 7.54773H20.2533C20.0684 7.54773 19.9667 7.63264 19.9483 7.80229L19.0473 13.2695C19.0379 13.3232 19.0518 13.3723 19.0889 13.4169C19.1255 13.4617 19.172 13.4839 19.2274 13.4839H20.3641C20.475 13.4839 20.5489 13.4259 20.5859 13.3097L20.8355 11.7554C20.8447 11.684 20.877 11.6259 20.9325 11.5812C20.988 11.5365 21.0572 11.5073 21.1405 11.494C21.2236 11.4807 21.302 11.474 21.3761 11.474C21.45 11.474 21.5377 11.4785 21.6394 11.4874C21.7411 11.4963 21.806 11.5007 21.8335 11.5007C22.6284 11.5007 23.2521 11.2842 23.705 10.8508C24.1578 10.4176 24.3842 9.81689 24.3842 9.04842C24.3843 8.52136 24.2063 8.13946 23.8506 7.90264V7.90276ZM22.4297 10.1071C22.2264 10.2411 21.9213 10.3081 21.5148 10.3081L21.0712 10.3215L21.3068 8.88762C21.3251 8.78948 21.3852 8.74025 21.487 8.74025H21.7364C21.9398 8.74025 22.1015 8.74922 22.2218 8.76703C22.3417 8.78497 22.4574 8.84072 22.5683 8.93447C22.6793 9.02831 22.7347 9.16462 22.7347 9.3432C22.7347 9.71855 22.6329 9.97303 22.4297 10.1071Z" fill="#009CDE"/>
</g>
<defs>
<clipPath id="clip0_787_8117">
<rect width="34.0712" height="21.957" fill="white" transform="translate(0.45752)"/>
</clipPath>
</defs>
</svg>
