<svg width="34" height="22" viewBox="0 0 34 22" fill="none" xmlns="http://www.w3.org/2000/svg">
<g clip-path="url(#clip0_787_8109)">
<path d="M0.528809 2.74463C0.528809 1.22881 1.77174 0 3.30498 0H31.0667C32.6 0 33.8429 1.22881 33.8429 2.74463V19.2124C33.8429 20.7282 32.6 21.957 31.0667 21.957H3.30498C1.77174 21.957 0.528809 20.7282 0.528809 19.2124V2.74463Z" fill="#D8E3F3"/>
<path d="M29.1997 6.88272H27.4544C26.9268 6.88272 26.5209 7.04323 26.2774 7.56486L22.9492 15.0684H25.3033C25.3033 15.0684 25.7092 14.0653 25.7903 13.8245C26.0339 13.8245 28.3473 13.8245 28.672 13.8245C28.7532 14.1054 28.9561 15.0283 28.9561 15.0283H31.0667L29.1997 6.88272ZM26.4397 12.1392C26.6427 11.6577 27.3327 9.85205 27.3327 9.85205C27.3327 9.89218 27.5356 9.37054 27.6168 9.08966L27.7791 9.81193C27.7791 9.81193 28.2256 11.7781 28.3067 12.1794H26.4397V12.1392Z" fill="#3362AB"/>
<path d="M23.1111 12.382C23.1111 14.0673 21.5688 15.1908 19.1741 15.1908C18.1594 15.1908 17.1854 14.9902 16.6577 14.7494L16.9824 12.9036L17.2665 13.024C17.9971 13.345 18.4841 13.4654 19.3771 13.4654C20.0265 13.4654 20.7165 13.2246 20.7165 12.6629C20.7165 12.3017 20.4323 12.061 19.5394 11.6597C18.6871 11.2584 17.5506 10.6164 17.5506 9.45276C17.5506 7.84772 19.1335 6.76431 21.3658 6.76431C22.2182 6.76431 22.9488 6.92482 23.3952 7.12545L23.0705 8.891L22.9082 8.73049C22.5023 8.56999 21.9747 8.40948 21.2035 8.40948C20.3512 8.44961 19.9453 8.81074 19.9453 9.13175C19.9453 9.49289 20.4323 9.77377 21.2035 10.1349C22.5023 10.7368 23.1111 11.4189 23.1111 12.382Z" fill="#3362AB"/>
<path d="M3.30469 6.96431L3.34527 6.8038H6.83579C7.32283 6.8038 7.68812 6.96431 7.80988 7.48595L8.58104 11.0973C7.80988 9.17124 6.02404 7.60633 3.30469 6.96431Z" fill="#F9B50B"/>
<path d="M13.4922 6.88436L9.96113 15.03H7.56648L5.53711 8.20853C6.99825 9.13143 8.21587 10.576 8.66233 11.5791L8.90586 12.4218L11.0976 6.84424H13.4922V6.88436Z" fill="#3362AB"/>
<path d="M14.4259 6.84424H16.6582L15.2377 15.03H13.0054L14.4259 6.84424Z" fill="#3362AB"/>
</g>
<defs>
<clipPath id="clip0_787_8109">
<rect width="33.3141" height="21.957" fill="white" transform="translate(0.528809)"/>
</clipPath>
</defs>
</svg>
